<svg width="65" height="41" viewBox="0 0 65 41" fill="none" xmlns="http://www.w3.org/2000/svg">
<path d="M1.45888 18.5742V4.30746L4.28129 4.07548V16.3124H9.03687L8.7469 18.5742H1.45888Z" fill="#111111"/>
<path d="M17.4965 18.8449C16.0531 18.8449 14.9705 18.3809 14.2488 17.453C13.5271 16.5251 13.1662 15.3072 13.1662 13.7993V4.19147L16.008 4.07548V14.0313C16.008 14.5339 16.0338 14.9592 16.0853 15.3072C16.1498 15.6552 16.298 15.9516 16.5299 16.1964C16.7619 16.4413 17.1163 16.5637 17.5932 16.5637C18.0443 16.5637 18.3729 16.4413 18.5791 16.1964C18.7982 15.9387 18.9335 15.6423 18.9851 15.3072C19.0366 14.9592 19.0624 14.521 19.0624 13.9926V4.30746L21.6528 4.07548V13.4707C21.6528 14.8368 21.3822 16.074 20.8409 17.1824C20.3125 18.2907 19.1977 18.8449 17.4965 18.8449Z" fill="#111111"/>
<path d="M30.9748 18.8449C29.3123 18.8449 28.1395 18.0909 27.4565 16.5831C26.7863 15.0752 26.4512 13.2194 26.4512 11.0156C26.4512 9.82988 26.6059 8.68931 26.9152 7.59385C27.2245 6.49839 27.7207 5.59624 28.4037 4.88741C29.0997 4.1657 29.976 3.80484 31.0328 3.80484C31.8448 3.80484 32.5536 4.05615 33.1593 4.55878C33.7779 5.0614 34.2483 5.71868 34.5705 6.53061C34.9056 7.32965 35.0731 8.16735 35.0731 9.04372L32.3281 9.17904C32.3281 8.59909 32.2314 7.94182 32.0381 7.20721C31.8448 6.45972 31.4581 6.08598 30.8782 6.08598C30.2725 6.08598 29.8536 6.56927 29.6216 7.53585C29.3896 8.50243 29.2737 9.66233 29.2737 11.0156C29.2737 12.691 29.4025 14.0377 29.6603 15.0559C29.918 16.0611 30.4142 16.5637 31.1488 16.5637C31.6643 16.5637 32.0316 16.2609 32.2507 15.6552C32.4698 15.0365 32.6116 14.289 32.676 13.4127L35.0925 13.6447C35.0925 14.5726 34.9378 15.4361 34.6285 16.2351C34.3192 17.0213 33.8553 17.6528 33.2366 18.1296C32.618 18.6065 31.8641 18.8449 30.9748 18.8449Z" fill="#111111"/>
<path d="M46.3496 18.8255L43.8365 12.0788L42.7346 13.9926V18.5742H39.8929V4.30746L42.7346 4.07548V10.4163L46.1756 4.07548H49.1914L46.079 10.0683L49.23 18.1683L46.3496 18.8255Z" fill="#111111"/>
<path d="M55.6546 18.6902V12.8327L52.1749 4.07548H55.2873L57.2784 10.107L59.4242 4.07548H61.86L58.5157 12.5041V18.4582L55.6546 18.6902Z" fill="#111111"/>
<path d="M5.28654 37.7023C4.11375 37.7023 3.1214 37.3801 2.30947 36.7358C1.51043 36.0785 0.924037 35.2021 0.550293 34.1067L2.94741 32.9854L3.17939 33.372C3.55314 34.0164 3.90755 34.5191 4.24263 34.8799C4.5906 35.2408 5.02234 35.4212 5.53785 35.4212C5.87293 35.4212 6.16935 35.2601 6.4271 34.9379C6.69775 34.6157 6.83307 34.2613 6.83307 33.8747C6.83307 33.5138 6.74285 33.1852 6.56242 32.8888C6.382 32.5923 6.15002 32.3539 5.86649 32.1735L3.33405 30.6656C2.59944 30.2532 2.01305 29.7313 1.57487 29.0997C1.13669 28.4682 0.917594 27.7594 0.917594 26.9733C0.917594 26.1356 1.11091 25.3881 1.49754 24.7308C1.89706 24.0735 2.4319 23.5645 3.10207 23.2036C3.78512 22.8427 4.55194 22.6623 5.40253 22.6623C6.39488 22.6623 7.23903 22.9072 7.93497 23.3969C8.63091 23.8866 9.14642 24.6148 9.4815 25.5814L7.08438 26.664C7.03283 26.5609 6.92328 26.3289 6.75574 25.968C6.5882 25.6072 6.382 25.3494 6.13713 25.1948C5.90515 25.0272 5.61518 24.9434 5.26721 24.9434C4.84191 24.9434 4.51327 25.0788 4.28129 25.3494C4.0622 25.6201 3.95266 25.968 3.95266 26.3933C3.95266 26.7026 4.03643 26.9862 4.20397 27.2439C4.3844 27.4888 4.59704 27.6821 4.84191 27.8239L7.18104 29.1964C8.90799 30.1759 9.81658 31.4647 9.90679 33.0627C9.90679 33.9778 9.70059 34.7897 9.28818 35.4985C8.88866 36.1945 8.33449 36.7358 7.62566 37.1224C6.92972 37.509 6.15002 37.7023 5.28654 37.7023Z" fill="#111111"/>
<path d="M14.5282 37.5477V23.1649L17.37 22.9329V28.8098H20.0764V23.1649L22.9181 22.9329V37.3157L20.0764 37.5477V31.4002H17.37V37.3157L14.5282 37.5477Z" fill="#111111"/>
<path d="M32.3148 31.0716H31.2129V37.3157L28.3904 37.5477V23.0489L31.8315 22.9329C33.494 22.9329 34.7957 23.268 35.7365 23.9382C36.6773 24.5955 37.1477 25.6072 37.1477 26.9733C37.1477 27.8754 36.9672 28.6165 36.6064 29.1964C36.2584 29.7764 35.7493 30.2597 35.0792 30.6463L36.3744 33.7973L37.689 36.9291L34.9052 37.683L32.3148 31.0716ZM32.1794 28.9838C32.8496 28.9838 33.3716 28.8484 33.7453 28.5778C34.1319 28.2943 34.3252 27.7659 34.3252 26.9926C34.3252 25.794 33.7324 25.1948 32.5467 25.1948H31.2129V28.9838H32.1794Z" fill="#111111"/>
<path d="M46.2971 37.7023C44.8536 37.7023 43.7711 37.2384 43.0493 36.3105C42.3276 35.3825 41.9668 34.1646 41.9668 32.6568V23.0489L44.8085 22.9329V32.8888C44.8085 33.3914 44.8343 33.8167 44.8859 34.1646C44.9503 34.5126 45.0985 34.809 45.3305 35.0539C45.5625 35.2988 45.9169 35.4212 46.3937 35.4212C46.8448 35.4212 47.1734 35.2988 47.3796 35.0539C47.5987 34.7961 47.734 34.4997 47.7856 34.1646C47.8371 33.8167 47.8629 33.3785 47.8629 32.8501V23.1649L50.4534 22.9329V32.3281C50.4534 33.6942 50.1827 34.9315 49.6414 36.0398C49.113 37.1482 47.9982 37.7023 46.2971 37.7023Z" fill="#111111"/>
<path d="M55.8317 22.9329H59.0794C60.8322 22.9329 62.1081 23.2745 62.9071 23.9575C63.7061 24.6406 64.1057 25.5427 64.1057 26.664C64.1057 27.3728 63.9639 27.9978 63.6804 28.5391C63.4097 29.0804 63.0295 29.4735 62.5398 29.7184C63.1584 30.0406 63.6481 30.4723 64.009 31.0136C64.3699 31.542 64.5503 32.3281 64.5503 33.372C64.5503 36.0785 62.4174 37.4317 58.1515 37.4317H55.8317V22.9329ZM59.2534 28.8291C60.0009 28.8291 60.5551 28.7067 60.9159 28.4618C61.2897 28.2169 61.4766 27.7143 61.4766 26.9539C61.4766 26.2838 61.2639 25.8263 60.8386 25.5814C60.4262 25.3236 59.8592 25.1948 59.1374 25.1948H58.5768V28.8291H59.2534ZM59.1954 35.1699C60.1234 35.1699 60.7935 34.9444 61.2059 34.4933C61.6183 34.0293 61.8245 33.5267 61.8245 32.9854C61.8245 32.1477 61.599 31.5935 61.1479 31.3229C60.7097 31.0394 60.0911 30.8976 59.2921 30.8976H58.6735V35.1699H59.1954Z" fill="#111111"/>
</svg>
