<?xml version="1.0" encoding="UTF-8"?>
<svg id="Camada_1" data-name="Camada 1" xmlns="http://www.w3.org/2000/svg" viewBox="0 0 24 24">
  <defs>
    <style>
      .cls-1 {
        fill: #f3f4dc;
      }

      .cls-2 {
        fill: #252616;
      }
    </style>
  </defs>
  <rect class="cls-2" x="0" y="0" width="24" height="24" rx="8" ry="8"/>
  <g>
    <path class="cls-1" d="m11.48,3c.12.06.17.18.23.29.28.46.53.93.76,1.41.16.34.31.68.45,1.02.11.29.19.6.26.9.05.22.11.44.16.66.04.16.06.32.1.48,0,.01,0,.02.02.05.03-.08.07-.15.09-.23.06-.17.16-.32.27-.46.16-.21.32-.43.48-.64.04-.05.06-.1.09-.16.1-.19.2-.36.35-.52.07-.07.13-.15.2-.21.16-.15.32-.3.47-.46.1-.1.19-.2.28-.3.11-.12.25-.13.38-.07.09.04.12.13.11.23-.01.09,0,.19,0,.28,0,.05,0,.09,0,.14,0,.16.02.31.03.47,0,.06,0,.12,0,.18,0,.12,0,.23,0,.35,0,.25-.04.49-.11.73-.07.23-.15.46-.22.69-.05.18-.09.37-.14.56-.01.06-.03.11-.04.18.06-.02.1-.03.15-.05.22-.08.43-.16.65-.25.23-.09.45-.17.68-.26.16-.06.32-.12.49-.17.07-.02.14-.04.21-.02.08.02.11.08.13.15.05.16.06.32.05.49-.01.18-.06.36-.13.53-.06.15-.13.3-.21.44-.1.19-.21.37-.35.53-.09.11-.18.21-.28.31-.14.14-.3.24-.46.35-.11.08-.22.16-.33.26-.16.14-.33.27-.51.38-.2.13-.35.3-.48.49-.15.21-.3.43-.44.64-.09.12-.17.24-.26.37,0,0,0,.01-.01.02-.16.13-.21.32-.26.51-.05.18-.08.36-.07.55,0,.06.02.11.03.17,0,0,0,0,.01,0,.03-.09.05-.18.08-.27.04-.16.09-.32.13-.48.03-.1.05-.2.08-.3,0-.03.02-.05.04-.07.08-.08.16-.16.24-.25.11-.12.22-.24.33-.36.1-.11.19-.21.29-.32.2-.21.41-.42.61-.64.08-.09.15-.18.21-.28.12-.17.28-.28.48-.31.14-.02.28,0,.41.06.05.02.1.04.14.07.08.05.12.13.15.21.03.07.04.15.05.22,0,.06-.02.12-.03.18-.04.16-.07.32-.12.47-.04.14-.1.27-.15.4-.06.19-.12.38-.17.57-.07.28-.15.56-.29.82-.13.23-.29.43-.5.59-.07.05-.13.11-.18.17-.2.22-.43.39-.69.53-.11.06-.22.13-.33.19-.16.09-.33.13-.51.17-.17.03-.34.07-.51.1-.17.03-.35.05-.52.07-.12.01-.24.03-.37.03-.4,0-.79,0-1.19,0-.13,0-.25-.01-.38-.02-.14,0-.29-.02-.43-.03-.14,0-.27-.02-.41-.03-.16,0-.31-.02-.47-.02-.09,0-.18.02-.27.02-.19,0-.38-.05-.56-.13-.11-.05-.23-.09-.34-.14-.03-.01-.08-.02-.09-.07,0-.05,0-.11.05-.14.06-.04.13-.06.2-.07.15-.02.29.02.43.05.1.02.2.02.3.03.27,0,.54,0,.81,0,.13,0,.25,0,.38.02.38.05.76.03,1.13.03.21,0,.42,0,.63,0,.19,0,.39-.02.58-.03.18-.01.37-.04.55-.05.05,0,.07-.04.08-.08.03-.14-.01-.17-.14-.23-.08-.04-.14-.08-.17-.16-.06-.12-.12-.24-.16-.37-.04-.11-.11-.2-.17-.3-.09-.14-.2-.26-.33-.38-.06-.06-.13-.1-.2-.15-.05-.04-.09-.08-.13-.13-.06-.07-.11-.15-.18-.21-.1-.1-.2-.19-.3-.28-.12-.11-.25-.21-.37-.32-.28-.24-.56-.48-.86-.69-.14-.09-.28-.18-.43-.28,0,.01,0,.02-.01.03-.02.16-.03.32-.01.47.01.07.04.14.07.21.06.14.12.28.15.44.03.16.11.31.19.46.13.25.27.49.4.73.11.2.24.39.39.56.06.07.13.12.2.18.04.03.08.06.09.12,0,.02.03.04.04.06.05.05.1.1.14.15.03.04.06.09.08.13-.07.05-.13.07-.21.05-.19-.05-.38-.1-.57-.13-.1-.02-.2-.02-.3-.03-.16,0-.32,0-.48,0-.15,0-.3-.02-.45-.04-.13-.01-.27-.03-.4-.05-.19-.03-.37-.09-.55-.16-.22-.09-.41-.21-.61-.33-.13-.08-.27-.14-.4-.21-.11-.06-.22-.12-.31-.22-.07-.08-.15-.14-.22-.21-.05-.05-.12-.07-.18-.07-.19-.03-.36-.1-.51-.22-.07-.05-.13-.12-.19-.17-.09-.08-.19-.16-.28-.24-.09-.09-.17-.2-.25-.3-.07-.08-.14-.17-.2-.25-.09-.11-.18-.23-.26-.34-.05-.07-.1-.13-.13-.21-.05-.09-.05-.18-.03-.28.03-.12.09-.21.18-.29.06-.06.14-.08.23-.09.18-.02.34.04.5.1.19.07.38.11.58.1.15,0,.31,0,.46,0,.02,0,.03,0,.05,0,0,0,0,0,0-.01-.02-.02-.04-.03-.06-.05-.18-.09-.32-.23-.45-.37-.16-.17-.33-.34-.5-.52-.13-.13-.22-.28-.3-.44-.05-.09-.09-.17-.17-.24-.04-.04-.09-.07-.14-.1-.13-.08-.22-.18-.25-.33-.02-.11.02-.21.07-.31.04-.07.1-.09.16-.12.17-.06.33-.13.51-.17.13-.02.26,0,.37.08.11.08.22.12.35.11.26,0,.52.03.77.09.13.03.25.06.38.09,0,0,.02,0,.03,0-.04-.12-.09-.23-.12-.34-.04-.12-.07-.25-.11-.37-.05-.19-.1-.38-.15-.58-.07-.26-.13-.51-.2-.77-.06-.25-.13-.5-.19-.74-.03-.12-.05-.25-.07-.37-.01-.07-.01-.13,0-.19.03-.09.1-.14.19-.16.16-.03.3.02.41.14.05.05.11.1.16.16.19.21.42.39.66.53.17.1.34.19.51.29.25.15.5.29.74.44.13.08.25.17.37.25.07.05.11.03.13-.05.03-.15.06-.31.09-.46.02-.16.04-.33.06-.5.01-.17.02-.33.02-.5,0-.12,0-.24,0-.37,0-.2.02-.41.03-.61,0-.1,0-.2,0-.3,0-.1-.01-.2-.02-.3,0-.14-.02-.28-.03-.41,0-.12-.02-.24-.04-.36,0-.09-.03-.17-.03-.26,0-.06.01-.11.03-.16.01-.03.06-.05.09-.08.02-.01.05-.02.07-.03.04,0,.09,0,.13,0Zm1.92,8.11s0,0,0,0c-.04-.08-.09-.17-.13-.25-.06-.11-.1-.22-.14-.34-.06-.18-.14-.36-.26-.52-.1-.13-.18-.28-.26-.42-.1-.16-.2-.32-.34-.45-.06-.06-.13-.11-.19-.17-.17-.14-.34-.28-.51-.42-.12-.1-.24-.19-.36-.28-.08-.06-.17-.13-.25-.19-.04-.04-.07-.09-.12-.13-.1-.09-.2-.18-.31-.26-.18-.12-.36-.24-.54-.35-.11-.06-.23-.11-.33-.17-.29-.18-.57-.36-.85-.54-.07-.05-.14-.09-.22-.14.01.09.02.17.04.24.02.08.04.16.06.24.06.21.12.41.18.62.04.15.09.3.08.45,0,.02,0,.04,0,.06.02.07.05.14.07.21.06.18.11.35.17.53.06.19.15.37.28.52.06.06.11.12.16.19.06.09.11.19.17.28.09.13.18.25.26.39.16.27.38.47.68.59.19.07.36.18.46.36.01.02.03.03.05.05.08.05.15.1.23.15.22.14.44.29.63.46.11.1.23.2.34.3.11.1.23.19.34.29.1.09.2.17.29.27.14.14.28.28.43.42.06.06.12.13.19.2,0-.04.02-.07.02-.1,0-.11,0-.23-.02-.34,0-.1-.02-.19-.02-.29,0-.12,0-.23,0-.35,0-.12-.01-.24-.03-.36-.01-.1-.03-.19-.05-.29-.04-.16-.12-.31-.19-.45Zm-2.08,3.3s-.04-.06-.05-.09c-.07-.13-.14-.26-.21-.39-.14-.25-.27-.5-.41-.76-.06-.11-.11-.22-.17-.33-.12-.22-.32-.33-.57-.35-.08,0-.16-.02-.24-.04-.17-.04-.34-.1-.49-.18-.27-.13-.54-.22-.84-.23-.04,0-.09-.01-.12-.03-.28-.14-.58-.18-.89-.15-.08,0-.16,0-.24,0-.12-.01-.23-.05-.33-.12-.08-.06-.17-.07-.27-.08.06.09.12.16.18.24.09.11.18.22.27.33.06.08.12.16.19.23.14.14.29.28.44.41.08.07.18.13.28.17.13.04.26.07.39.12.13.05.24.13.33.24.05.07.11.14.18.18.16.11.32.2.48.3.13.08.27.15.41.22.08.04.16.09.25.11.13.04.27.07.41.09.18.03.37.05.55.07.04,0,.09,0,.13.01.12.01.23.02.36.03Zm4.37-8.76s-.06-.04-.09,0c-.02.03-.05.05-.07.08-.08.09-.16.19-.24.28-.08.09-.17.18-.24.28-.11.14-.21.28-.3.42-.13.2-.26.4-.41.59-.14.16-.25.34-.33.54-.03.07-.06.15-.08.22-.04.13-.07.27-.12.39-.05.12-.14.21-.26.26-.04.01-.06.04-.07.08-.03.14-.07.28-.1.42-.02.09-.04.19-.09.27-.04.06-.02.11.01.17.05.08.11.17.17.25.11.16.21.34.29.52.05.13.1.27.15.4.01-.01.02-.02.03-.03.18-.26.36-.51.54-.77.06-.09.12-.18.17-.28.08-.16.16-.32.23-.48.02-.05.05-.1.07-.14.05-.13.11-.26.15-.4.06-.16.11-.33.16-.49.05-.17.09-.34.14-.51.05-.17.11-.34.16-.51.07-.23.11-.45.11-.69,0-.04,0-.07,0-.11,0-.06,0-.11,0-.17,0-.07.01-.14.02-.21.01-.13.02-.25.04-.38Zm-9.06,3.65c.15.05.28.11.38.21.08.08.14.18.2.27.07.1.13.2.2.29.1.13.21.25.31.37.1.13.22.25.36.34.33.22.63.47.92.74.18.17.38.3.62.35.16.03.31.07.47.1.06.01.12-.03.13-.1,0-.08.02-.16.02-.25,0-.11,0-.22.02-.32.02-.12.01-.22-.1-.3-.02-.01-.03-.03-.04-.04-.27-.21-.49-.47-.67-.76-.09-.14-.18-.28-.28-.42-.04-.07-.1-.11-.18-.13-.26-.06-.53-.13-.79-.2-.17-.04-.33-.06-.5-.05-.1,0-.2,0-.29,0-.13,0-.24-.04-.33-.12-.06-.06-.14-.09-.23-.07-.07.02-.14.05-.22.07Zm10.91-.84c-.12.04-.23.08-.34.11-.26.08-.51.16-.77.24-.08.02-.16.04-.22.09-.13.09-.26.19-.38.3-.07.06-.13.13-.2.19-.06.06-.13.12-.19.18-.12.12-.24.23-.32.38-.06.12-.14.24-.22.35-.16.22-.32.44-.48.66-.07.09-.13.19-.21.28-.05.06-.06.13-.06.19,0,.05.01.1.02.15.01.14.03.27.04.41.01.14.03.28.04.42,0,.08,0,.15,0,.23,0,0,0,0,.01,0,.01-.01.03-.02.04-.04.09-.17.18-.33.27-.5.12-.22.26-.41.37-.63.11-.22.27-.39.47-.54.33-.25.66-.5.99-.75.09-.07.18-.13.25-.21.09-.08.17-.18.25-.27.13-.16.25-.33.34-.51.08-.16.15-.33.22-.5.03-.07.04-.14.07-.21Zm-4.64.53s.01-.03.02-.05c0-.09.02-.18.02-.27,0-.16,0-.33,0-.49,0-.06,0-.12,0-.18-.01-.11-.02-.23-.04-.34-.03-.16-.06-.33-.1-.49-.04-.16-.09-.32-.13-.48-.03-.12-.05-.24-.08-.36-.03-.13-.07-.27-.12-.4-.06-.17-.13-.35-.19-.52-.11-.3-.25-.59-.39-.87,0-.01-.02-.02-.03-.03-.01.02-.03.03-.03.05,0,.06,0,.13-.01.19,0,.09,0,.19,0,.28,0,.1,0,.2,0,.31,0,.41.02.81-.03,1.22,0,.08-.02.15-.03.23-.02.11-.04.21-.06.32-.02.1-.04.19-.07.29-.04.12-.08.23-.13.35-.02.05,0,.08.04.11.05.03.1.05.14.08.06.04.14.07.19.12.2.21.42.4.65.58.14.12.28.24.43.36Zm1.72,5.86c.08-.04.14-.07.21-.1.28-.12.54-.29.76-.5.13-.13.26-.26.4-.38.22-.2.36-.44.42-.73.05-.24.13-.48.22-.71.04-.11.08-.21.11-.32.04-.15.08-.31.12-.47.03-.12.05-.24.08-.36-.06.02-.1.03-.15.04-.05.01-.1.03-.14.08-.03.04-.07.07-.11.1-.05.05-.11.09-.16.14-.05.05-.1.09-.15.14-.09.08-.18.16-.27.24-.05.05-.1.1-.15.14-.09.09-.19.18-.28.27-.37.39-.54.86-.61,1.38-.03.22-.09.43-.18.63-.04.09-.07.18-.1.26-.01.04-.02.09-.03.14Z"/>
    <path class="cls-1" d="m15.42,17.01c-.19.01-.36-.05-.53-.12-.13-.05-.26-.09-.4-.1-.15-.02-.29-.05-.44-.08-.13-.02-.27-.05-.4-.07-.08-.01-.16-.02-.24-.02-.19,0-.37.03-.55.08-.2.06-.39.14-.58.23-.2.09-.41.18-.63.22-.12.03-.25.04-.38.05-.09,0-.19,0-.29,0-.14-.01-.28-.04-.42-.09-.22-.07-.41-.2-.61-.31-.12-.06-.24-.11-.38-.12-.14,0-.27-.02-.41-.02-.08,0-.16.02-.24.03-.09.01-.12,0-.16-.09-.03-.07-.05-.13-.03-.21.02-.06.08-.07.12-.1.12-.06.25-.11.39-.13.2-.03.4-.02.6.03.21.06.4.16.59.27.18.11.38.17.59.2.3.03.58-.03.84-.15.21-.09.41-.19.63-.26.19-.06.37-.11.57-.13.11-.01.23-.03.34-.03.16,0,.32.02.48.05.21.03.43.07.64.11.17.03.33.07.49.15.12.06.25.09.38.11.09.01.18.03.27.05.02,0,.05.03.05.05.03.1.03.2-.02.3-.02.04-.05.06-.09.06-.06,0-.13,0-.19.01Z"/>
    <path class="cls-1" d="m14.81,17.86c0,.1-.05.14-.14.15-.04,0-.08.01-.12.02-.09.02-.19,0-.28,0-.15-.01-.3-.02-.45-.02-.12,0-.24.02-.36.04-.15.02-.31.06-.46.09-.17.03-.33.07-.5.11-.15.03-.3.06-.46.08-.12.02-.24.03-.35.05-.18.03-.36.03-.54.03-.2,0-.39-.05-.57-.12-.12-.04-.23-.08-.35-.12-.2-.08-.39-.16-.59-.23-.12-.05-.21-.13-.29-.23-.04-.05-.09-.1-.14-.14-.03-.02-.02-.05,0-.07.01-.02.02-.05.06-.04.13.03.26.05.38.08.24.06.48.12.72.18.17.04.33.1.5.14.2.05.4.05.6.02.35-.05.71-.11,1.06-.17.25-.05.51-.11.76-.15.11-.02.21-.03.32-.03.08,0,.17,0,.25,0,.16.02.32.04.48.06.08.01.15.04.23.05.1.01.15.08.21.16.02.02.03.06.04.08Z"/>
    <path class="cls-1" d="m12.78,19.59c-.15,0-.29,0-.44,0-.14,0-.27-.01-.41-.02-.12,0-.25-.01-.37-.02-.11,0-.23-.02-.34-.03-.19-.02-.38-.04-.58-.06-.17-.02-.33-.05-.48-.11-.15-.06-.27-.14-.34-.28-.03-.06,0-.13.06-.15.11-.02.22-.05.32-.06.09,0,.18.01.26.03.21.04.41.08.62.12.11.02.22.02.33.03.17,0,.33.01.5.02.16,0,.32.02.49.03.18,0,.36,0,.54,0,.12,0,.25,0,.37-.02.23-.02.45-.05.67-.11.09-.03.19-.05.28-.08.12-.03.24,0,.29.1.03.05.04.11.06.16,0,.01,0,.03-.01.04-.11.12-.25.19-.4.23-.15.04-.3.07-.45.1-.09.02-.18.03-.28.04-.11.02-.23.04-.35.05-.12.01-.24.01-.36.02,0,0,0-.01,0-.02Z"/>
    <path class="cls-1" d="m14.17,20.4s.03.07.03.1c0,.02-.01.04-.03.05-.21.12-.44.22-.68.26-.15.03-.29.04-.44.07-.18.03-.35.04-.53.05-.14,0-.27.03-.41.04-.09,0-.18.01-.27.02-.12,0-.24.01-.35.01-.1,0-.2,0-.3,0-.16,0-.32-.04-.48-.09-.08-.03-.17-.07-.25-.12-.03-.02-.06-.06-.08-.1-.05-.09-.03-.2.03-.27.02-.02.05-.04.08-.03.12,0,.23.02.35.03.1.01.2.04.3.04.24,0,.48,0,.71.01.15,0,.3,0,.45,0,.18,0,.35-.02.53-.03.15,0,.3-.01.45-.02.2,0,.39,0,.59,0,.1,0,.2,0,.3,0Z"/>
  </g>
</svg>